<svg width="327" height="103" viewBox="0 0 327 103" fill="none" xmlns="http://www.w3.org/2000/svg">
<g filter="url(#filter0_d_244_3562)">
<path d="M50.5637 21.8C53.7897 21.8 56.7121 22.1966 59.3127 23.0148L60.2327 23.299C62.337 23.9746 64.1459 24.7314 65.6399 25.5793C67.2085 26.4696 68.3955 27.2273 69.0491 27.8264C69.6005 28.3313 69.6954 29.1654 69.2717 29.7814L63.7668 37.7824C63.2353 38.5547 62.1337 38.6556 61.4709 37.9924C61.2346 37.7561 60.6742 37.3113 59.6907 36.6271L59.6604 36.6057L59.6301 36.5832C58.8538 35.9833 57.7258 35.3858 56.1887 34.8195C54.776 34.2991 53.0197 34.0158 50.884 34.0158C48.4407 34.0158 46.0287 34.6806 43.6301 36.0568L43.6233 36.0607C41.3104 37.3713 39.3786 39.2897 37.8342 41.8635C36.3358 44.3608 35.552 47.4108 35.552 51.0764C35.552 54.737 36.3336 57.8094 37.8342 60.3527L38.1282 60.8283C39.6203 63.1652 41.4543 64.9504 43.6252 66.2199C46.0219 67.5536 48.4357 68.2004 50.884 68.2004C54.0699 68.2003 56.4946 67.6867 58.2551 66.7697C59.265 66.2437 60.0679 65.8002 60.6721 65.4377C61.3001 65.0609 61.6364 64.8163 61.7737 64.6906C62.4483 64.0727 63.5141 64.1968 64.0286 64.9533L69.468 72.9523C69.8899 73.5728 69.7885 74.4095 69.2307 74.9113C68.6394 75.4433 67.4391 76.1458 65.8547 76.9797L65.8479 76.9826L65.8411 76.9865C64.1369 77.8616 61.9811 78.6415 59.4055 79.34H59.4045L59.4026 79.3391C56.7742 80.0632 53.823 80.4162 50.5637 80.4162C45.5121 80.4162 40.7956 79.2958 36.4368 77.049L36.426 77.0441C32.0403 74.7382 28.495 71.3902 25.8 67.0334L25.7942 67.0236C23.1041 62.6009 21.8001 57.2606 21.8 51.0764C21.8 44.8523 23.1032 39.5072 25.7981 35.1223L25.8 35.1193C28.4964 30.7602 32.0451 27.4309 36.4368 25.1672C40.7956 22.9204 45.5121 21.8 50.5637 21.8ZM145.394 21.8C149.366 21.8 152.885 22.5135 155.905 23.9982L156.448 24.2687C159.134 25.6311 161.351 27.2177 163.056 29.05L163.379 29.3937C163.414 29.4321 163.478 29.4077 163.478 29.3557V25.0568C163.478 24.1066 164.248 23.3361 165.198 23.3361H173.486C175.695 23.3361 177.486 25.127 177.486 27.3361V74.8801C177.486 77.0892 175.695 78.8801 173.486 78.8801H165.44C164.427 78.8801 163.606 78.0589 163.606 77.0461V72.6945C163.605 72.4919 163.354 72.3993 163.22 72.551C161.45 74.5962 159.054 76.4037 156.088 77.9973L156.08 78.0012C153.008 79.6305 149.429 80.4162 145.394 80.4162C140.282 80.4162 135.603 79.2019 131.393 76.757L131.386 76.7541C127.223 74.3105 123.903 70.8933 121.433 66.5363L121.428 66.5275L121.424 66.5197C118.979 62.0815 117.781 56.9388 117.781 51.1398C117.782 45.3414 118.978 40.2173 121.427 35.8185L121.43 35.8137C123.899 31.415 127.217 27.9742 131.382 25.5285C135.594 23.0375 140.277 21.8 145.394 21.8ZM277.408 21.8C282.778 21.8 287.519 22.932 291.577 25.2531L291.958 25.4689C295.867 27.7298 298.908 30.8944 301.063 34.9357L301.273 35.3303C303.407 39.4344 304.445 44.252 304.445 49.7316C304.445 50.1133 304.422 50.7657 304.379 51.6594V51.6633C304.337 52.5152 304.292 53.1636 304.241 53.5666C304.148 54.3168 303.51 54.8798 302.754 54.8801H267.156C264.81 54.8801 262.919 56.9218 263.675 59.1428C263.933 59.8995 264.242 60.6317 264.602 61.34C265.789 63.6756 267.545 65.5353 269.906 66.9308C272.271 68.3041 275.239 69.0324 278.881 69.0324C281.987 69.0324 284.532 68.5812 286.562 67.7385C288.735 66.8115 290.447 65.7491 291.74 64.5754C293.142 63.2551 294.079 62.1477 294.618 61.2482C295.155 60.3549 296.416 60.2665 297.072 61.0764L302.511 67.7971C302.929 68.3132 302.957 69.0427 302.581 69.59C301.081 71.7721 299.241 73.6772 297.073 75.3058L297.072 75.3068C294.893 76.9752 292.266 78.2232 289.224 79.0754C286.144 79.9811 282.451 80.4162 278.177 80.4162C272.329 80.4162 267.175 79.1738 262.771 76.631L262.763 76.6262L262.755 76.6223C258.416 74.0461 255.064 70.4879 252.718 65.9758L252.715 65.9709C250.372 61.4204 249.221 56.251 249.221 50.5002C249.221 45.1704 250.311 40.3244 252.521 35.9943C254.739 31.6065 257.963 28.1329 262.171 25.5988L262.177 25.5949C266.463 23.0413 271.562 21.8 277.408 21.8ZM106.441 21.8C109.009 21.8 111.327 22.1602 113.364 22.9182C115.26 23.5672 116.787 24.2738 117.769 25.092C118.301 25.5354 118.46 26.2861 118.154 26.9074L113.611 36.1232C113.156 37.0448 111.931 37.2472 111.204 36.5207C110.828 36.1447 110.016 35.6385 108.572 35.0607L108.538 35.0471C107.287 34.5106 105.646 34.2082 103.561 34.2082C101.084 34.2082 99.03 34.9658 97.3147 36.4621C95.4805 38.0621 94.077 39.9904 93.0979 42.2619C92.1353 44.5514 91.6848 46.6097 91.6848 48.4523V74.8801C91.6848 77.0892 89.894 78.8801 87.6848 78.8801H81.6125C79.4034 78.8801 77.6125 77.0892 77.6125 74.8801V27.3361C77.6125 25.127 79.4034 23.3361 81.6125 23.3361H90.342C91.0836 23.3362 91.6847 23.9373 91.6848 24.6789C91.6848 25.9009 93.2623 26.5605 94.2415 25.8293C95.122 25.1717 96.0886 24.5528 97.1379 23.9719C99.7933 22.5019 102.914 21.8 106.441 21.8ZM195.903 23.3361C197.531 23.3361 198.996 24.3229 199.609 25.8312L211.031 53.9621C212.382 57.2888 217.093 57.2888 218.444 53.9621L229.866 25.8312C230.479 24.323 231.945 23.3363 233.573 23.3361H240.006C242.876 23.3361 244.812 26.2693 243.684 28.9084L223.358 76.4523C222.728 77.9248 221.28 78.8801 219.679 78.8801H209.856C208.257 78.88 206.812 77.9285 206.181 76.4601L185.74 28.9162C184.604 26.2763 186.54 23.3364 189.413 23.3361H195.903ZM147.825 34.0158C145.067 34.0159 142.467 34.7114 140.003 36.1174L139.556 36.3869C137.344 37.7673 135.517 39.6475 134.072 42.0558C132.57 44.5581 131.789 47.5667 131.789 51.1398C131.789 54.7132 132.57 57.7225 134.072 60.2248C135.609 62.7878 137.581 64.7528 139.987 66.1535C142.453 67.5218 145.058 68.2003 147.825 68.2004C150.82 68.2004 153.451 67.4937 155.758 66.1096C158.074 64.7201 159.917 62.7702 161.289 60.2209C162.647 57.6563 163.35 54.6434 163.35 51.1398C163.35 47.6319 162.646 44.642 161.289 42.1232L161.284 42.1144C159.91 39.5229 158.068 37.556 155.758 36.1701L155.742 36.1603C153.438 34.7391 150.813 34.0158 147.825 34.0158ZM277.536 33.1203C273.962 33.1203 271.238 33.8126 269.248 35.0656C267.183 36.3924 265.721 37.972 264.793 39.7902L264.787 39.801C263.852 41.5968 265.31 43.4961 267.335 43.4963H286.818C288.81 43.4963 290.273 41.6765 289.427 39.8732L289.421 39.8615L289.416 39.8508C288.603 38.0393 287.259 36.4487 285.317 35.0891C283.517 33.8292 280.973 33.1203 277.536 33.1203Z" fill="#FAFAFA"/>
</g>
<defs>
<filter id="filter0_d_244_3562" x="4.95911e-05" y="-1.14441e-05" width="326.245" height="102.216" filterUnits="userSpaceOnUse" color-interpolation-filters="sRGB">
<feFlood flood-opacity="0" result="BackgroundImageFix"/>
<feColorMatrix in="SourceAlpha" type="matrix" values="0 0 0 0 0 0 0 0 0 0 0 0 0 0 0 0 0 0 127 0" result="hardAlpha"/>
<feOffset/>
<feGaussianBlur stdDeviation="10.9"/>
<feComposite in2="hardAlpha" operator="out"/>
<feColorMatrix type="matrix" values="0 0 0 0 1 0 0 0 0 1 0 0 0 0 1 0 0 0 0.39 0"/>
<feBlend mode="normal" in2="BackgroundImageFix" result="effect1_dropShadow_244_3562"/>
<feBlend mode="normal" in="SourceGraphic" in2="effect1_dropShadow_244_3562" result="shape"/>
</filter>
</defs>
</svg>
