<svg width="45" height="35" viewBox="0 0 45 35" fill="none" xmlns="http://www.w3.org/2000/svg">
<g clip-path="url(#clip0_339_1204)">
<path fill-rule="evenodd" clip-rule="evenodd" d="M44.643 8.54694C45.0433 8.70667 45.3865 8.98268 45.6283 9.33935C45.8702 9.69602 45.9997 10.117 46 10.5479V35.4512C45.9997 35.8821 45.8702 36.3031 45.6283 36.6598C45.3865 37.0164 45.0433 37.2924 44.643 37.4522L23.7992 45.7897C23.2852 45.9952 22.7119 45.9952 22.1979 45.7897L1.35412 37.4522C0.954411 37.292 0.611816 37.0158 0.370474 36.6592C0.129132 36.3025 0.000100222 35.8818 0 35.4512L0 10.5479C0.000100222 10.1173 0.129132 9.69659 0.370474 9.33996C0.611816 8.98333 0.954411 8.70713 1.35412 8.54694L21.3986 0.528561L21.4101 0.525686L22.1979 0.209436C22.7127 0.00310477 23.2873 0.00310477 23.8021 0.209436L24.5899 0.525686L24.6014 0.528561L44.643 8.54694ZM40.6928 10.0621L23 17.1403L5.30725 10.0621L2.875 11.0367V12.1867L21.5625 19.6617V42.4374L23 43.0124L24.4375 42.4374V19.6646L43.125 12.1896V11.0396L40.6928 10.0621Z" fill="#2A2A2A"/>
</g>
<defs>
<clipPath id="clip0_339_1204">
<rect width="46" height="46" fill="white"/>
</clipPath>
</defs>
</svg>
