<svg width="49" height="49" viewBox="0 0 49 49" fill="none" xmlns="http://www.w3.org/2000/svg">
<path d="M41.5557 0C45.6056 0.000117512 48.8886 3.28309 48.8887 7.33301V41.5557C48.8886 45.6056 45.6056 48.8886 41.5557 48.8887H7.33301C3.28309 48.8886 0.000117509 45.6056 0 41.5557V7.33301C0.000117254 3.28309 3.28309 0.000117251 7.33301 0H41.5557ZM13.2344 44H41.5557C42.9055 43.9999 43.9999 42.9055 44 41.5557V32.791L34.2217 23.0127L13.2344 44ZM7.33301 4.88867C5.98315 4.88879 4.88879 5.98315 4.88867 7.33301V41.5557C4.88876 42.604 5.55029 43.4946 6.47754 43.8418L32.4932 17.8271L32.6787 17.6592C33.6387 16.8761 35.0552 16.9324 35.9502 17.8271L44 25.877V7.33301C43.9999 5.98315 42.9055 4.88879 41.5557 4.88867H7.33301ZM15.8896 9.77734C19.2643 9.77778 22 12.5139 22 15.8887C21.9998 19.2633 19.2642 21.9986 15.8896 21.999C12.5147 21.999 9.7785 19.2636 9.77832 15.8887C9.77832 12.5136 12.5146 9.77734 15.8896 9.77734ZM15.8896 14.666C15.2146 14.666 14.667 15.2137 14.667 15.8887C14.6672 16.5635 15.2147 17.1104 15.8896 17.1104C16.5642 17.1099 17.1112 16.5633 17.1113 15.8887C17.1113 15.2139 16.5643 14.6665 15.8896 14.666Z" fill="white" fill-opacity="0.02"/>
</svg>
