<svg width="56" height="68" viewBox="0 0 56 68" fill="none" xmlns="http://www.w3.org/2000/svg">
<path d="M42.432 66.96C36.6882 65.5002 30.9802 63.9068 25.2562 62.373C19.5588 60.8464 13.8399 59.3872 8.16847 57.77C3.77194 56.5172 1.1358 53.6674 0.21676 49.5382C-0.309078 47.1776 0.133376 44.9454 1.4165 42.9429C6.20846 35.4731 11.0407 28.0279 15.8573 20.5723C19.8815 14.3436 23.9003 8.11031 27.9362 1.88777C29.1283 0.0500017 31.3874 -0.509421 33.3792 0.490783C35.3487 1.48044 36.1502 3.59323 35.2352 5.56472C33.7159 8.84237 32.1422 12.0978 30.6088 15.3717C29.0708 18.6566 29.9795 21.1686 33.4383 23.0848C35.4116 24.1791 37.5433 24.5323 39.741 24.1455C42.3266 23.6918 43.88 22.0926 44.1078 19.6245C44.4599 15.8054 44.7565 11.9806 45.0794 8.15824C45.2545 6.06779 46.9877 4.62198 49.178 4.73168C51.3717 4.84079 53.1166 6.4563 53.2249 8.55715C53.6409 16.6068 54.0319 24.6558 54.4326 32.7059C54.8407 40.8785 55.2372 49.0509 55.6605 57.223C56.0069 63.9139 49.5032 68.7572 42.432 66.96Z" fill="white" fill-opacity="0.4"/>
</svg>
