<svg width="30" height="42" viewBox="0 0 30 42" fill="none" xmlns="http://www.w3.org/2000/svg">
<path d="M31 25.7518C31 34.5039 18.0262 41.5881 17.4737 41.8806C17.3281 41.959 17.1654 42 17 42C16.8346 42 16.6719 41.959 16.5262 41.8806C15.9737 41.5881 3 34.5039 3 25.7518C3.00232 23.6966 3.81958 21.7263 5.27248 20.273C6.72539 18.8198 8.69528 18.0023 10.75 18C13.3312 18 15.5912 20.8226 17 22.6993C18.4087 20.8226 20.6687 18 23.25 18C25.3047 18.0023 27.2746 18.8198 28.7275 20.273C30.1804 21.7263 30.9977 23.6966 31 25.7518Z" fill="#2A2A2A"/>
<path d="M14.469 3.60107C16.4194 7.66673 12.0942 13.7897 11.908 14.0462C11.8592 14.1144 11.7943 14.169 11.719 14.2051C11.6438 14.2412 11.5606 14.2577 11.4768 14.253C11.1602 14.2377 3.67777 13.779 1.72744 9.71332C1.2705 8.75809 1.20332 7.66438 1.54063 6.67214C1.87794 5.67989 2.59219 4.87013 3.52669 4.42052C4.70131 3.85705 6.35872 4.6749 7.41799 5.23917C7.64085 4.05985 8.04028 2.25531 9.2149 1.69184C10.1504 1.24438 11.229 1.1941 12.214 1.55203C13.199 1.90996 14.01 2.64686 14.469 3.60107Z" fill="#2A2A2A"/>
</svg>
