<svg width="23" height="23" viewBox="0 0 23 23" fill="none" xmlns="http://www.w3.org/2000/svg">
<g filter="url(#filter0_d_244_3575)">
<path d="M13.5484 14.7316C13.7996 14.7705 14.0507 14.7184 14.2486 14.5865C14.4466 14.4546 14.5759 14.2532 14.6093 14.0248C14.909 11.9254 15.5344 9.38652 13.0555 7.95733C11.7151 7.18458 10.0468 7.23027 8.88436 8.00482C7.72191 8.77937 7.17961 10.2067 7.599 11.5931C8.37373 14.1539 11.2421 14.3752 13.5484 14.7316Z" fill="#93FF8B"/>
<path d="M13.5484 14.7316C13.7996 14.7705 14.0507 14.7184 14.2486 14.5865C14.4466 14.4546 14.5759 14.2532 14.6093 14.0248C14.909 11.9254 15.5344 9.38652 13.0555 7.95733C11.7151 7.18458 10.0468 7.23027 8.88436 8.00482C7.72191 8.77937 7.17961 10.2067 7.599 11.5931C8.37373 14.1539 11.2421 14.3752 13.5484 14.7316Z" stroke="#9BFF93" stroke-width="1.25979"/>
</g>
<defs>
<filter id="filter0_d_244_3575" x="4.86374e-05" y="-1.23978e-05" width="22.3634" height="22.1445" filterUnits="userSpaceOnUse" color-interpolation-filters="sRGB">
<feFlood flood-opacity="0" result="BackgroundImageFix"/>
<feColorMatrix in="SourceAlpha" type="matrix" values="0 0 0 0 0 0 0 0 0 0 0 0 0 0 0 0 0 0 127 0" result="hardAlpha"/>
<feOffset/>
<feGaussianBlur stdDeviation="3.4"/>
<feComposite in2="hardAlpha" operator="out"/>
<feColorMatrix type="matrix" values="0 0 0 0 0.607822 0 0 0 0 1 0 0 0 0 0.576923 0 0 0 1 0"/>
<feBlend mode="normal" in2="BackgroundImageFix" result="effect1_dropShadow_244_3575"/>
<feBlend mode="normal" in="SourceGraphic" in2="effect1_dropShadow_244_3575" result="shape"/>
</filter>
</defs>
</svg>
