<svg width="32" height="32" viewBox="0 0 32 32" fill="none" xmlns="http://www.w3.org/2000/svg">
  <path d="M13 4c0-1.105.895-2 2-2h2c1.105 0 2 .895 2 2v2h1c1.105 0 2 .895 2 2v1h2c1.105 0 2 .895 2 2v15c0 1.105-.895 2-2 2H8c-1.105 0-2-.895-2-2V11c0-1.105.895-2 2-2h2V8c0-1.105.895-2 2-2h1V4zm-4 5v15c0 .552.448 1 1 1h12c.552 0 1-.448 1-1V9H9zm9-1V5a1 1 0 00-1-1h-2a1 1 0 00-1 1v3h4zm-2 4c.552 0 1 .448 1 1v3h3c.552 0 1 .448 1 1s-.448 1-1 1h-3v3c0 .552-.448 1-1 1s-1-.448-1-1v-3h-3c-.552 0-1-.448-1-1s.448-1 1-1h3v-3c0-.552.448-1 1-1z" fill="#EF4444"/>
</svg>