<svg width="42" height="35" viewBox="0 0 42 35" fill="none" xmlns="http://www.w3.org/2000/svg">
<circle cx="21" cy="21" r="21" fill="#2A2A2A"/>
<path d="M25 18C24.4477 18 23.9899 17.5479 24.0997 17.0066C24.2935 16.0506 24.7645 15.1645 25.4645 14.4645C26.4021 13.5268 27.6739 13 29 13C30.3261 13 31.5979 13.5268 32.5355 14.4645C33.2355 15.1645 33.7065 16.0506 33.9003 17.0066C34.0101 17.5479 33.5523 18 33 18L32.0365 18C31.4843 18 31.0563 17.5267 30.7959 17.0397C30.7023 16.8647 30.5829 16.7028 30.44 16.56C30.0581 16.178 29.5401 15.9635 29 15.9635C28.4599 15.9635 27.9419 16.178 27.56 16.56C27.4171 16.7028 27.2977 16.8647 27.2041 17.0397C26.9437 17.5267 26.5157 18 25.9635 18L25 18Z" fill="#1A1A1A"/>
<path d="M14 23.5C13.4477 23.5 12.9939 23.9492 13.0588 24.4977C13.1502 25.2713 13.3477 26.0302 13.647 26.7528C14.0742 27.7841 14.7003 28.7211 15.4896 29.5104C16.2789 30.2997 17.2159 30.9258 18.2472 31.353C19.2785 31.7801 20.3838 32 21.5 32C22.6162 32 23.7215 31.7801 24.7528 31.353C25.7841 30.9258 26.7211 30.2997 27.5104 29.5104C28.2997 28.7211 28.9258 27.7841 29.353 26.7528C29.6523 26.0302 29.8498 25.2713 29.9412 24.4977C30.0061 23.9492 29.5523 23.5 29 23.5L21.5 23.5L14 23.5Z" fill="#1A1A1A"/>
<path d="M9 18C8.44772 18 7.98992 17.5479 8.09965 17.0066C8.29346 16.0506 8.76447 15.1645 9.46447 14.4645C10.4021 13.5268 11.6739 13 13 13C14.3261 13 15.5979 13.5268 16.5355 14.4645C17.2355 15.1645 17.7065 16.0506 17.9003 17.0066C18.0101 17.5479 17.5523 18 17 18L16.0365 18C15.4843 18 15.0563 17.5267 14.7959 17.0397C14.7023 16.8647 14.5829 16.7028 14.44 16.56C14.0581 16.178 13.5401 15.9635 13 15.9635C12.4599 15.9635 11.9419 16.178 11.56 16.56C11.4171 16.7028 11.2977 16.8647 11.2041 17.0397C10.9437 17.5267 10.5157 18 9.96347 18L9 18Z" fill="#1A1A1A"/>
</svg>
