<svg width="30" height="20" viewBox="0 0 30 20" fill="none" xmlns="http://www.w3.org/2000/svg">
<path d="M9.76812 6.60959C9.16133 2.48285 12.2229 0.00654635 14.9883 1.25611e-05C17.8656 -0.00652123 20.8376 2.53643 20.294 6.3979C20.5757 6.36785 20.6757 6.13916 20.8179 5.97582C23.3463 3.09311 28.2625 3.8458 29.6629 7.33746C30.3434 9.03363 29.9301 10.624 28.9903 12.0653C25.4102 17.5576 20.3506 20.4625 13.7129 19.9398C7.85827 19.4786 3.47127 16.443 0.647961 11.3296C-0.491894 9.26493 -0.0733326 7.16236 1.47587 5.69356C3.13037 4.12545 5.58514 3.75694 7.57528 4.7344C8.4203 5.14864 9.04287 5.80202 9.76812 6.60959Z" fill="#9DFE00"/>
</svg>
