<svg width="21" height="21" viewBox="0 0 21 21" fill="none" xmlns="http://www.w3.org/2000/svg">
<path d="M16.6928 8.34712C16.6928 12.5145 12.0697 16.8547 10.5173 18.1951C10.3726 18.3039 10.1966 18.3627 10.0156 18.3627C9.83469 18.3627 9.65864 18.3039 9.51401 18.1951C7.96156 16.8547 3.33844 12.5145 3.33844 8.34712C3.33844 6.57622 4.04193 4.87784 5.29415 3.62563C6.54636 2.37341 8.24473 1.66992 10.0156 1.66992C11.7865 1.66992 13.4849 2.37341 14.7371 3.62563C15.9893 4.87784 16.6928 6.57622 16.6928 8.34712Z" stroke="#6A7282" stroke-width="1.6693" stroke-linecap="round" stroke-linejoin="round"/>
<path d="M10.0154 10.8507C11.3983 10.8507 12.5194 9.72961 12.5194 8.34672C12.5194 6.96383 11.3983 5.84277 10.0154 5.84277C8.63253 5.84277 7.51147 6.96383 7.51147 8.34672C7.51147 9.72961 8.63253 10.8507 10.0154 10.8507Z" stroke="#6A7282" stroke-width="1.6693" stroke-linecap="round" stroke-linejoin="round"/>
</svg>
