<svg width="21" height="21" viewBox="0 0 21 21" fill="none" xmlns="http://www.w3.org/2000/svg">
<path d="M15.8584 9.18066H4.17333C3.2514 9.18066 2.50403 9.92803 2.50403 10.85V16.6925C2.50403 17.6144 3.2514 18.3618 4.17333 18.3618H15.8584C16.7803 18.3618 17.5277 17.6144 17.5277 16.6925V10.85C17.5277 9.92803 16.7803 9.18066 15.8584 9.18066Z" stroke="#6A7282" stroke-width="1.6693" stroke-linecap="round" stroke-linejoin="round"/>
<path d="M5.84265 9.18079V5.84219C5.84265 4.73538 6.28233 3.6739 7.06497 2.89126C7.8476 2.10863 8.90908 1.66895 10.0159 1.66895C11.1227 1.66895 12.1842 2.10863 12.9668 2.89126C13.7495 3.6739 14.1891 4.73538 14.1891 5.84219V9.18079" stroke="#6A7282" stroke-width="1.6693" stroke-linecap="round" stroke-linejoin="round"/>
</svg>
