<svg width="17" height="20" viewBox="0 0 17 20" fill="none" xmlns="http://www.w3.org/2000/svg">
<path d="M0.19268 1.72637C0.27793 0.73673 1.1093 0 2.08487 0C2.5359 0 2.95052 0.15592 3.27777 0.4168C3.61576 0.15549 4.03972 0 4.5 0C4.96028 0 5.38424 0.15549 5.72223 0.4168C6.04947 0.15592 6.46409 0 6.91513 0C7.8907 0 8.7221 0.73673 8.8073 1.72637C8.8913 2.70145 9 4.20918 9 5.50001C9 7.13618 8.1263 8.5676 6.82365 9.3543C6.60178 9.4883 6.54461 9.6534 6.55027 9.74C6.67665 11.674 7 16.6917 7 17.4975C7 18.8782 5.88071 19.9975 4.5 19.9975C3.11929 19.9975 2 18.8782 2 17.4975C2 16.6917 2.32335 11.674 2.44973 9.74C2.45539 9.6534 2.39822 9.4883 2.17635 9.3543C0.87367 8.5676 0 7.13618 0 5.50001C0 4.20918 0.10869 2.70145 0.19268 1.72637ZM6.5 5.25C6.5 5.66421 6.16421 6 5.75 6C5.33579 6 5 5.66421 5 5.25V2C5 1.72386 4.77614 1.5 4.5 1.5C4.22386 1.5 4 1.72386 4 2V5.25C4 5.66421 3.66421 6 3.25 6C2.83579 6 2.5 5.66421 2.5 5.25V1.91513C2.5 1.68586 2.31414 1.5 2.08487 1.5C1.87003 1.5 1.70406 1.65873 1.68714 1.8551C1.60403 2.81997 1.5 4.27568 1.5 5.50001C1.5 6.58932 2.0801 7.54385 2.95182 8.0703C3.49687 8.3995 3.9993 9.0304 3.94654 9.8378C3.8171 11.8186 3.5 16.7563 3.5 17.4975C3.5 18.0498 3.94772 18.4975 4.5 18.4975C5.05228 18.4975 5.5 18.0498 5.5 17.4975C5.5 16.7563 5.1829 11.8186 5.05346 9.8378C5.0007 9.0304 5.50313 8.3995 6.04818 8.0703C6.9199 7.54385 7.5 6.58932 7.5 5.50001C7.5 4.27568 7.396 2.81997 7.3129 1.8551C7.2959 1.65873 7.13 1.5 6.91513 1.5C6.68586 1.5 6.5 1.68586 6.5 1.91513V5.25ZM10 5.75C10 2.57436 12.5744 0 15.75 0C16.1642 0 16.5 0.33579 16.5 0.75V9.25C16.5 9.5677 16.6063 11.1447 16.7246 12.8917L16.7302 12.9745C16.8594 14.8829 17 16.9581 17 17.4975C17 18.8782 15.8807 19.9975 14.5 19.9975C13.1193 19.9975 12 18.8782 12 17.4975C12 16.9829 12.1278 14.8855 12.2516 12.9631C12.3141 11.9917 12.3767 11.0506 12.4236 10.3525L12.4473 10H11.75C10.7835 10 10 9.2165 10 8.25V5.75ZM13.9982 9.3015L13.9768 9.6156C13.9631 9.8164 13.9436 10.1044 13.9202 10.453C13.8733 11.1503 13.8109 12.0899 13.7484 13.0595C13.6222 15.0193 13.5 17.0456 13.5 17.4975C13.5 18.0498 13.9477 18.4975 14.5 18.4975C15.0523 18.4975 15.5 18.0498 15.5 17.4975C15.5 17.0171 15.362 14.9714 15.228 12.993L15.221 12.8894C15.1085 11.2292 15 9.6269 15 9.25V1.56597C13.0105 1.9202 11.5 3.6587 11.5 5.75V8.25C11.5 8.3881 11.6119 8.5 11.75 8.5H13.25C13.4578 8.5 13.6564 8.5862 13.7982 8.7382C13.94 8.8901 14.0125 9.0941 13.9982 9.3015Z" fill="#6A7282"/>
</svg>
